# xmcd
#
# Track frame offsets:
# 150
# 13574
# 29517
# 51869
# 71320
# 88866
# 105100
# 120260
# 133783
# 150826
# 166267
# 195441
#
# Disc length: 2619 seconds
#
#
# Revision: 1
# Processed by: cddbd v1.5.2PL0 Copyright (c) Steve Scherf et al.
# Submitted via: FreeRIP 2.945 
#
DISCID=850a390c
DTITLE=Emerson Drive - Countrified
DYEAR=2006
DGENRE=Country
TTITLE0=A Good Man
TTITLE1=Testify
TTITLE2=Moments
TTITLE3=Sweet Natural Girl
TTITLE4=You Still Own Me
TTITLE5=Lucky Man
TTITLE6=Everyday Woman
TTITLE7=Countrified Soul
TTITLE8=Painted Too Much Of This Town
TTITLE9=A Boy Becomes A Man
TTITLE10=Devil Went Down To Georgia
TTITLE11=Data
EXTD=
EXTT0=
EXTT1=
EXTT2=
EXTT3=
EXTT4=
EXTT5=
EXTT6=
EXTT7=
EXTT8=
EXTT9=
EXTT10=
EXTT11=
PLAYORDER=
